<?xml version="1.0" encoding="UTF-8" standalone="no"?>
<!-- Created with Inkscape (http://www.inkscape.org/) -->

<svg
   width="1000mm"
   height="300mm"
   viewBox="0 0 1000 300"
   version="1.1"
   id="svg135"
   sodipodi:docname="track_2.svg"
   inkscape:version="1.2.1 (9c6d41e, 2022-07-14)"
   xmlns:inkscape="http://www.inkscape.org/namespaces/inkscape"
   xmlns:sodipodi="http://sodipodi.sourceforge.net/DTD/sodipodi-0.dtd"
   xmlns="http://www.w3.org/2000/svg"
   xmlns:svg="http://www.w3.org/2000/svg">
  <sodipodi:namedview
     id="namedview137"
     pagecolor="#505050"
     bordercolor="#eeeeee"
     borderopacity="1"
     inkscape:showpageshadow="0"
     inkscape:pageopacity="0"
     inkscape:pagecheckerboard="0"
     inkscape:deskcolor="#505050"
     inkscape:document-units="mm"
     showgrid="true"
     inkscape:zoom="0.50383782"
     inkscape:cx="-1048.9487"
     inkscape:cy="-130.00215"
     inkscape:window-width="1670"
     inkscape:window-height="951"
     inkscape:window-x="58"
     inkscape:window-y="38"
     inkscape:window-maximized="0"
     inkscape:current-layer="layer1">
    <inkscape:grid
       type="xygrid"
       id="grid371"
       originx="0"
       originy="0"
       dotted="false"
       spacingx="2.6458333"
       spacingy="2.6458333"
       empcolor="#00e5a2"
       empopacity="0.30196078"
       empspacing="5"
       color="#0099e5"
       opacity="0.69411765" />
  </sodipodi:namedview>
  <defs
     id="defs132" />
  <g
     inkscape:label="Layer 1"
     inkscape:groupmode="layer"
     id="layer1">
    <path
       style="color:#000000;fill:#3ea647;stroke-linecap:square;-inkscape-stroke:none"
       d="m -26.458333,-32.494137 -3.535157,3.535156 1.767579,1.767578 C -14.577862,-13.543352 8.897827,4.5e-6 52.916667,2.5e-6 h 39.6875 2.5 v -5 h -2.5 -39.6875 C 9.9112722,-4.9999955 -11.880498,-17.9163 -24.690755,-30.726559 Z M 1029.3757,-18.230465 v 4.999999 h 2.5 c 11.9791,0 21.1383,8.9875905 27.5293,21.7695314 6.391,12.7819406 9.6582,29.0644666 9.6582,41.8769526 0,12.812486 -3.1648,28.586664 -15.8047,41.226563 -12.6399,12.639899 -35.028,22.419919 -74.29887,22.419919 h -224.89648 -2.5 v 5 h 2.5 224.89648 c 40.10417,0 64.01567,-10.06636 77.83407,-23.884762 13.8184,-13.818409 17.2695,-31.1159 17.2695,-44.76172 0,-13.64582 -3.3474,-30.436915 -10.1855,-44.1132807 -6.8382,-13.6763658 -17.5229,-24.5332033 -32.002,-24.5332033 z M 129.79167,-4.9999975 v 5 h 2.5 52.91796 c 19.28818,0 65.79172,6.5885485 112.09375,13.2031255 46.30204,6.614577 92.4015,13.253906 112.80079,13.253906 20.39928,0 40.47853,-6.742845 60.32226,-13.357422 C 490.27016,6.4850358 509.87849,3.5e-6 529.16667,2.5e-6 c 19.28817,1e-6 38.89845,6.4850331 58.74218,13.0996095 19.84373,6.614577 39.92103,13.357422 60.32032,13.357422 20.39928,0 40.47853,-6.742845 60.32226,-13.357422 C 728.39516,6.4850355 748.00349,2.5e-6 767.29167,2.5e-6 c 19.28817,0 38.89845,6.485033 58.74218,13.0996095 19.84373,6.614577 39.92103,13.357421 60.32032,13.357422 h 132.29303 2.5 v -5 h -2.5 -132.29303 c -19.28818,0 -38.89651,-6.485033 -58.74024,-13.0996093 C 807.7702,1.742848 787.69095,-4.9999975 767.29167,-4.9999975 c -20.39929,0 -40.47659,6.7428455 -60.32032,13.3574222 -19.84373,6.6145763 -39.45401,13.0996093 -58.74218,13.0996093 -19.28818,0 -38.89651,-6.485033 -58.74024,-13.0996093 -19.84373,-6.6145766 -39.92298,-13.3574212 -60.32226,-13.3574222 -20.39929,1e-6 -40.47659,6.7428457 -60.32032,13.3574222 -19.84373,6.6145763 -39.45401,13.0996093 -58.74218,13.0996093 -19.28818,0 -65.79172,-6.588548 -112.09375,-13.2031249 C 251.70838,1.6393322 205.60892,-4.9999975 185.20963,-4.9999975 h -52.91796 z m -248.85352,25.4218755 -1.76758,1.767578 c -6.24629,6.246293 -19.41884,15.367105 -36.48437,25.236328 -17.06553,9.869222 -38.08244,20.58373 -60.32813,30.470704 -44.49138,19.773946 -94.07685,36.166012 -126.3164,36.166012 h -291.04102 c -12.81248,0 -22.332,-3.19334 -28.64844,-6.35156 -6.31643,-3.15822 -9.27148,-6.14648 -9.27148,-6.14648 l -1.76758,-1.767583 -3.53516,3.535153 1.76758,1.76758 c 0,0 3.65955,3.62763 10.57227,7.08399 6.91272,3.45636 17.237,6.8789 30.88281,6.8789 h 291.04102 c 33.90621,0 83.54225,-16.68219 128.34765,-36.5957 22.4027,-9.956757 43.5532,-20.738384 60.80078,-30.712891 17.24759,-9.974506 30.53277,-19.046436 37.51563,-26.029297 l 1.76758,-1.767578 z m 464.13867,79.556641 -2.23633,1.117191 c -25.56387,12.78194 -65.0267,12.9668 -78.25586,12.96679 h -238.124995 -2.5 v 5 h 2.5 238.124995 c 13.22916,1e-5 53.13946,0.18223 80.49219,-13.49414 l 2.23633,-1.11719 z m 357.1875,0 -2.23633,1.117191 c -25.56387,12.78194 -65.0267,12.9668 -78.25586,12.96679 h -224.89648 -2.5 v 5 h 2.5 224.89648 c 13.22916,1e-5 53.13946,0.18223 80.49219,-13.49414 l 2.23633,-1.11719 z"
       id="path3548-7" />
  </g>
</svg>
