<?xml version="1.0" encoding="UTF-8" standalone="no"?>
<!-- Created with Inkscape (http://www.inkscape.org/) -->

<svg
   width="1000mm"
   height="300mm"
   viewBox="0 0 1000 300"
   version="1.1"
   id="svg135"
   sodipodi:docname="track_2_line.svg"
   inkscape:version="1.3 (0e150ed, 2023-07-21)"
   xmlns:inkscape="http://www.inkscape.org/namespaces/inkscape"
   xmlns:sodipodi="http://sodipodi.sourceforge.net/DTD/sodipodi-0.dtd"
   xmlns="http://www.w3.org/2000/svg"
   xmlns:svg="http://www.w3.org/2000/svg">
  <sodipodi:namedview
     id="namedview137"
     pagecolor="#505050"
     bordercolor="#eeeeee"
     borderopacity="1"
     inkscape:showpageshadow="0"
     inkscape:pageopacity="0"
     inkscape:pagecheckerboard="0"
     inkscape:deskcolor="#505050"
     inkscape:document-units="mm"
     showgrid="true"
     inkscape:zoom="0.57848045"
     inkscape:cx="958.54579"
     inkscape:cy="-140.02202"
     inkscape:window-width="1672"
     inkscape:window-height="951"
     inkscape:window-x="58"
     inkscape:window-y="38"
     inkscape:window-maximized="0"
     inkscape:current-layer="layer1">
    <inkscape:grid
       type="xygrid"
       id="grid371"
       originx="0"
       originy="0"
       dotted="false"
       spacingx="2.6458333"
       spacingy="2.6458333"
       empcolor="#00e5a2"
       empopacity="0.30196078"
       empspacing="5"
       color="#0099e5"
       opacity="0.69411765"
       units="mm"
       visible="true" />
  </sodipodi:namedview>
  <defs
     id="defs132" />
  <g
     inkscape:label="Layer 1"
     inkscape:groupmode="layer"
     id="layer1">
    <path
       style="font-variation-settings:normal;vector-effect:none;fill:none;fill-opacity:1;stroke:#3ea647;stroke-width:5;stroke-linecap:square;stroke-linejoin:miter;stroke-miterlimit:4;stroke-dasharray:none;stroke-dashoffset:0;stroke-opacity:1;-inkscape-stroke:none;stop-color:#000000"
       d="M 1018.6458,13.229167 H 886.35416 c -39.6875,-1e-6 -79.375,-26.458334 -119.0625,-26.458334 -39.6875,0 -79.375,26.458333 -119.0625,26.458334 -39.6875,0 -79.37501,-26.458332 -119.0625,-26.458334 -39.68751,1e-6 -79.375,26.458332 -119.0625,26.458334 -39.6875,0 -185.20833,-26.458334 -224.89583,-26.458334 h -52.91666"
       id="path1" />
    <path
       style="font-variation-settings:normal;vector-effect:none;fill:none;fill-opacity:1;stroke:#3ea647;stroke-width:5;stroke-linecap:square;stroke-linejoin:miter;stroke-miterlimit:4;stroke-dasharray:none;stroke-dashoffset:0;stroke-opacity:1;-inkscape-stroke:none;stop-color:#000000"
       d="m 92.604166,-13.229167 -39.687509,1e-6 c -43.5121605,2e-6 -66.145823,-13.229167 -79.37499,-26.458335"
       id="path3548-7-7" />
    <path
       style="fill:none;stroke:#3ea647;stroke-width:5;stroke-linecap:square;stroke-linejoin:miter;stroke-dasharray:none;stroke-opacity:1"
       d="M 26.458333,105.83333 H 264.58333 c 13.22917,1e-5 52.91667,1e-5 79.375,-13.229158"
       id="path1194"
       sodipodi:nodetypes="ccc" />
    <path
       style="fill:none;stroke:#3ea647;stroke-width:5;stroke-linecap:square;stroke-linejoin:miter;stroke-dasharray:none;stroke-opacity:1"
       d="m 396.875,105.83333 224.89583,0 c 13.22917,1e-5 52.91667,1e-5 79.375,-13.229158"
       id="path1194-1"
       sodipodi:nodetypes="ccc" />
    <path
       style="fill:none;stroke:#3ea647;stroke-width:5;stroke-linecap:square;stroke-linejoin:miter;stroke-dasharray:none;stroke-opacity:1"
       d="m 754.06249,105.83333 224.89583,0 c 79.37498,0 92.60418,-39.687498 92.60418,-66.14583 0,-26.458333 -13.2292,-66.145833 -39.6875,-66.145833"
       id="path1194-1-5"
       sodipodi:nodetypes="cccc" />
    <path
       style="font-variation-settings:normal;vector-effect:none;fill:none;fill-opacity:1;stroke:#3ea647;stroke-width:5;stroke-linecap:square;stroke-linejoin:miter;stroke-miterlimit:4;stroke-dasharray:none;stroke-dashoffset:0;stroke-opacity:1;-inkscape-stroke:none;stop-color:#000000"
       d="m -687.91665,119.06251 c 0,0 13.22917,13.22916 39.68749,13.22916 h 238.125 c 79.375,0 238.125,-66.145837 277.81249,-105.833332"
       id="path3548-7"
       sodipodi:nodetypes="cccc" />
  </g>
</svg>
