<?xml version="1.0" encoding="UTF-8" standalone="no"?>
<!-- Created with Inkscape (http://www.inkscape.org/) -->

<svg
   width="1000mm"
   height="300mm"
   viewBox="0 0 1000 300"
   version="1.1"
   id="svg135"
   sodipodi:docname="track_2.svg"
   inkscape:version="1.2.1 (9c6d41e, 2022-07-14)"
   xmlns:inkscape="http://www.inkscape.org/namespaces/inkscape"
   xmlns:sodipodi="http://sodipodi.sourceforge.net/DTD/sodipodi-0.dtd"
   xmlns="http://www.w3.org/2000/svg"
   xmlns:svg="http://www.w3.org/2000/svg">
  <sodipodi:namedview
     id="namedview137"
     pagecolor="#505050"
     bordercolor="#eeeeee"
     borderopacity="1"
     inkscape:showpageshadow="0"
     inkscape:pageopacity="0"
     inkscape:pagecheckerboard="0"
     inkscape:deskcolor="#505050"
     inkscape:document-units="mm"
     showgrid="true"
     inkscape:zoom="0.57848045"
     inkscape:cx="3523.8875"
     inkscape:cy="73.468343"
     inkscape:window-width="1670"
     inkscape:window-height="951"
     inkscape:window-x="58"
     inkscape:window-y="38"
     inkscape:window-maximized="0"
     inkscape:current-layer="layer1">
    <inkscape:grid
       type="xygrid"
       id="grid371"
       originx="0"
       originy="0"
       dotted="false"
       spacingx="2.6458333"
       spacingy="2.6458333"
       empcolor="#00e5a2"
       empopacity="0.30196078"
       empspacing="5"
       color="#0099e5"
       opacity="0.69411765" />
  </sodipodi:namedview>
  <defs
     id="defs132" />
  <g
     inkscape:label="Layer 1"
     inkscape:groupmode="layer"
     id="layer1">
    <path
       id="path3548-7-7"
       style="color:#000000;fill:#3ea647;stroke-linecap:square;-inkscape-stroke:none"
       d="M -26.45885 -43.222685 L -29.994035 -39.6875 L -28.226701 -37.920166 C -14.578665 -24.272129 8.8973539 -10.728542 52.91615 -10.728544 L 92.60365 -10.728544 L 95.103756 -10.728544 L 95.103756 -15.728756 L 92.60365 -15.728756 L 52.91615 -15.728756 C 9.9107981 -15.728754 -11.881272 -28.644588 -24.691516 -41.454834 L -26.45885 -43.222685 z M 1029.3749 -28.958956 L 1029.3749 -23.958744 L 1031.875 -23.958744 C 1043.8541 -23.958744 1053.0131 -14.971459 1059.4041 -2.1895304 C 1065.7951 10.592398 1069.0624 26.875027 1069.0624 39.6875 C 1069.0624 52.499972 1065.8976 68.274039 1053.2577 80.913924 C 1040.6178 93.553811 1018.2296 103.33374 978.95885 103.33374 L 754.0625 103.33374 L 751.56239 103.33374 L 751.56239 108.33396 L 754.0625 108.33396 L 978.95885 108.33396 C 1019.0629 108.33396 1042.9745 98.267502 1056.7929 84.449109 C 1070.6112 70.630715 1074.0626 53.333306 1074.0626 39.6875 C 1074.0626 26.041693 1070.7153 9.2507827 1063.8772 -4.4255697 C 1057.039 -18.101922 1046.3541 -28.958956 1031.875 -28.958956 L 1029.3749 -28.958956 z M 129.79104 -15.728756 L 129.79104 -10.728544 L 132.29115 -10.728544 L 185.20885 -10.728544 C 204.49701 -10.728544 251.0008 -4.1397859 297.30278 2.4747843 C 343.60478 9.0893546 389.70438 15.728756 410.10365 15.728756 C 430.50291 15.728755 450.58184 8.9854845 470.42555 2.3709147 C 490.26926 -4.2436552 509.87799 -10.728543 529.16615 -10.728544 C 548.4543 -10.728543 568.06459 -4.2436554 587.9083 2.3709147 C 607.75201 8.9854847 627.82938 15.728756 648.22865 15.728756 C 668.62791 15.728755 688.70684 8.9854848 708.55055 2.3709147 C 728.39426 -4.2436555 748.00299 -10.728544 767.29115 -10.728544 C 786.5793 -10.728544 806.18959 -4.2436555 826.0333 2.3709147 C 845.87701 8.9854848 865.95438 15.728755 886.35365 15.728756 L 1018.6464 15.728756 L 1021.1465 15.728756 L 1021.1465 10.728544 L 1018.6464 10.728544 L 886.35365 10.728544 C 867.06549 10.728543 847.45676 4.2436555 827.61305 -2.3709147 C 807.76934 -8.9854848 787.69041 -15.728756 767.29115 -15.728756 C 746.89188 -15.728756 726.81451 -8.9854848 706.9708 -2.3709147 C 687.12709 4.2436555 667.5168 10.728543 648.22865 10.728544 C 628.94049 10.728544 609.33176 4.2436554 589.48805 -2.3709147 C 569.64434 -8.9854847 549.56541 -15.728755 529.16615 -15.728756 C 508.76688 -15.728755 488.68951 -8.9854846 468.8458 -2.3709147 C 449.00209 4.2436553 429.3918 10.728543 410.10365 10.728544 C 390.81549 10.728544 344.3117 4.1397859 298.00972 -2.4747843 C 251.70772 -9.0893546 205.60812 -15.728756 185.20885 -15.728756 L 132.29115 -15.728756 L 129.79104 -15.728756 z M -132.29115 22.922115 L -134.05848 24.691516 C -153.21472 43.84776 -202.8302 70.501515 -257.23029 91.931856 C -311.63039 113.36219 -371.11067 129.79104 -410.10365 129.79104 L -648.22865 129.79104 C -661.04112 129.79104 -670.56061 126.59977 -676.87703 123.44156 C -683.19346 120.28334 -686.1483 117.29517 -686.1483 117.29517 L -687.91615 115.52732 L -691.45288 119.0625 L -689.68348 120.82983 C -689.68348 120.82983 -686.02578 124.4578 -679.11307 127.91416 C -672.20036 131.37051 -661.87445 134.79126 -648.22865 134.79126 L -410.10365 134.79126 C -369.72178 134.79126 -310.13867 118.14813 -255.39836 96.583769 C -200.65805 75.019404 -151.05447 48.757873 -130.5233 28.226701 L -128.75597 26.45885 L -132.29115 22.922115 z M 345.07609 89.249849 L 342.84006 90.367094 C 317.27621 103.14902 277.813 103.33375 264.58385 103.33374 L 26.45885 103.33374 L 23.958744 103.33374 L 23.958744 108.33396 L 26.45885 108.33396 L 264.58385 108.33396 C 277.813 108.33397 317.72339 108.51604 345.07609 94.839689 L 347.31265 93.722445 L 345.07609 89.249849 z M 702.26359 89.249849 L 700.02756 90.367094 C 674.46371 103.14902 635.0005 103.33375 621.77135 103.33374 L 396.875 103.33374 L 394.37489 103.33374 L 394.37489 108.33396 L 396.875 108.33396 L 621.77135 108.33396 C 635.0005 108.33397 674.91089 108.51604 702.26359 94.839689 L 704.50015 93.722445 L 702.26359 89.249849 z " />
  </g>
</svg>
