<?xml version="1.0" encoding="UTF-8" standalone="no"?>
<!-- Created with Inkscape (http://www.inkscape.org/) -->

<svg
   width="1000mm"
   height="300mm"
   viewBox="0 0 1000 300"
   version="1.1"
   id="svg135"
   sodipodi:docname="tracktest_path.svg"
   inkscape:version="1.2.1 (9c6d41e, 2022-07-14)"
   xmlns:inkscape="http://www.inkscape.org/namespaces/inkscape"
   xmlns:sodipodi="http://sodipodi.sourceforge.net/DTD/sodipodi-0.dtd"
   xmlns="http://www.w3.org/2000/svg"
   xmlns:svg="http://www.w3.org/2000/svg">
  <sodipodi:namedview
     id="namedview137"
     pagecolor="#505050"
     bordercolor="#eeeeee"
     borderopacity="1"
     inkscape:showpageshadow="0"
     inkscape:pageopacity="0"
     inkscape:pagecheckerboard="0"
     inkscape:deskcolor="#505050"
     inkscape:document-units="mm"
     showgrid="true"
     inkscape:zoom="0.5407357"
     inkscape:cx="401.30511"
     inkscape:cy="181.23457"
     inkscape:window-width="1556"
     inkscape:window-height="882"
     inkscape:window-x="111"
     inkscape:window-y="97"
     inkscape:window-maximized="0"
     inkscape:current-layer="layer1">
    <inkscape:grid
       type="xygrid"
       id="grid371"
       originx="0"
       originy="0"
       dotted="false"
       spacingx="2.6458333"
       spacingy="2.6458333"
       empcolor="#00e5a2"
       empopacity="0.30196078"
       empspacing="5"
       color="#0099e5"
       opacity="0.69411765" />
  </sodipodi:namedview>
  <defs
     id="defs132" />
  <g
     inkscape:label="Layer 1"
     inkscape:groupmode="layer"
     id="layer1">
    <path
       style="color:#000000;fill:#3ea647;stroke-linecap:square;-inkscape-stroke:none"
       d="m 345.07617,89.25 -2.23633,1.117187 c -25.56387,12.781943 -65.0267,12.966803 -78.25586,12.966793 h -238.124996 -2.5 v 5 h 2.5 238.124996 c 13.22916,1e-5 53.13946,0.18223 80.49219,-13.494136 l 2.23633,-1.117188 z"
       id="path1194" />
    <path
       style="color:#000000;fill:#3ea647;stroke-linecap:square;-inkscape-stroke:none"
       d="m 702.26367,89.25 -2.23633,1.117187 c -25.56387,12.781943 -65.0267,12.966803 -78.25586,12.966793 h -238.125 -2.5 v 5 h 2.5 238.125 c 13.22916,1e-5 53.13946,0.18223 80.49219,-13.494136 L 704.5,93.722656 Z"
       id="path1194-1" />
    <path
       style="color:#000000;fill:#3ea647;stroke-linecap:square;-inkscape-stroke:none"
       d="m 1029.375,-28.958984 v 5 h 2.5 c 11.9791,0 21.1383,8.98759 27.5293,21.7695309 6.391,12.7819411 9.6582,29.0644671 9.6582,41.8769531 0,12.812485 -3.1648,28.586664 -15.8047,41.226562 -12.6399,12.639899 -35.028,22.419918 -74.29882,22.419918 h -238.125 -2.5 v 5 h 2.5 238.125 c 40.10412,0 64.01562,-10.066354 77.83402,-23.884761 13.8184,-13.818408 17.2695,-31.115899 17.2695,-44.761719 0,-13.645821 -3.3474,-30.4369152 -10.1855,-44.1132812 -6.8382,-13.6763658 -17.5229,-24.5332028 -32.002,-24.5332028 z"
       id="path1194-1-5" />
    <path
       style="color:#000000;fill:#3ea647;stroke-linecap:square;-inkscape-stroke:none"
       d="m 767.29102,-15.728516 c -13.22916,0 -27.27676,0.113963 -54.03321,13.4921879 C 687.69394,10.545612 648.22915,10.728516 635,10.728516 h -224.89648 -2.5 v 5 h 2.5 H 635 c 13.22915,0 53.13946,0.184179 80.49219,-13.4921879 26.16016,-13.0800831 38.56967,-12.9648441 51.79883,-12.9648441 13.22914,0 25.63866,-0.115239 51.79882,12.9648441 27.35274,13.6763659 67.265,13.4921879 80.49414,13.4921879 h 119.06252 2.5 v -5 h -2.5 -119.06252 c -13.22914,0 -52.69392,-0.182904 -78.25781,-12.9648441 C 794.56973,-15.614553 780.52016,-15.728516 767.29102,-15.728516 Z"
       id="path10392" />
  </g>
</svg>
